<svg id="Layer_1" data-name="Layer 1" xmlns="http://www.w3.org/2000/svg" viewBox="0 0 256 128"><defs><style>.cls-1{fill:#ff482a;}.cls-1,.cls-2,.cls-3{stroke:#000;}.cls-1,.cls-2{stroke-linecap:round;stroke-linejoin:round;}.cls-2{fill:#ff876a;}.cls-3{stroke-miterlimit:10;stroke-width:0.25px;}</style></defs><path class="cls-1" d="M46.2,20.06A43.95,43.95,0,1,0,90.14,64,43.94,43.94,0,0,0,46.2,20.06Zm0,77.59A33.65,33.65,0,1,1,79.84,64,33.64,33.64,0,0,1,46.2,97.65Z"/><path class="cls-2" d="M46.2,30.36A33.65,33.65,0,1,0,79.84,64,33.65,33.65,0,0,0,46.2,30.36ZM46.2,86a22,22,0,1,1,22-22A22,22,0,0,1,46.2,86Z"/><path d="M146.63,74.45c-2.59,7-7.46,12.39-18.58,12.39-13.14,0-20.75-9.25-20.75-21.36s8.47-21.59,20.93-21.59c11.51,0,16.73,6.08,18.57,12.78H143c-2.28-5.36-6.17-9.45-14.85-9.45-10.39,0-17,7.58-17,18.14,0,10.28,6.74,18.16,17.09,18.16,8.77,0,12.16-3.89,14.73-9.07Z"/><path d="M155.35,42.33h3.36v6.1h-3.36Zm0,14.75h3.36V86h-3.36Z"/><path d="M168.86,64.94c0-2.6,0-5.26-.06-7.86h3.25c.06.76.18,3.71.18,6.91a12.65,12.65,0,0,1,12-7.72v3.47c-6.7-.06-12,4.69-12,13.35V86h-3.37Z"/><path d="M215.58,77.34c-1.55,5.1-6,9.45-13.51,9.45-9.8,0-14.77-6.88-14.77-15.09,0-8.43,5.61-15.43,14.88-15.43,8.79,0,12.59,5.48,13.39,9.68H212.2c-1.25-3.32-4-6.64-10.19-6.64-6.83,0-11.22,5.1-11.22,12.27,0,6.78,4.22,12.17,11.28,12.17,5.44,0,8.53-2.68,10.14-6.41Z"/><path d="M224,44.75h3.55V82.64h25.8L252.73,86H224Z"/><path d="M110.21,105v3.34h-.62v-6.41c0-.45,0-.9,0-1.35h.6c0,.18,0,.55,0,1.05a2.29,2.29,0,0,1,2.17-1.2,2.54,2.54,0,0,1,2.49,2.74,2.72,2.72,0,0,1-2.63,2.92A2.07,2.07,0,0,1,110.21,105Zm4-1.81a2,2,0,1,0-2,2.32A2.09,2.09,0,0,0,114.22,103.18Z"/><path d="M121.33,103.25a2.74,2.74,0,1,1-5.47,0,2.74,2.74,0,1,1,5.47,0Zm-4.83,0a2.14,2.14,0,0,0,2.1,2.25,2,2,0,0,0,2.08-2.25,2.11,2.11,0,0,0-2.11-2.27A2.05,2.05,0,0,0,116.5,103.26Z"/><path d="M122.83,100.57c1.16,3.39,1.41,4.11,1.55,4.69h0c.14-.48.39-1.18,1.7-4.69h.61c1.26,3.39,1.57,4.22,1.67,4.62h0c.14-.5.56-1.76,1.59-4.62h.63l-2,5.36h-.61c-.69-1.89-1.49-4.05-1.67-4.63h0c-.14.48-.77,2.27-1.66,4.63H124l-1.86-5.36Z"/><path d="M132,103.39a2.09,2.09,0,0,0,2.13,2.13,1.93,1.93,0,0,0,1.84-1h.62a2.53,2.53,0,0,1-2.53,1.61,2.83,2.83,0,0,1,0-5.66,2.55,2.55,0,0,1,2.66,2.78v.19Zm4-.54a1.85,1.85,0,0,0-2-1.87,1.9,1.9,0,0,0-2,1.87Z"/><path d="M138.12,102c0-.48,0-1,0-1.46h.6c0,.14,0,.69,0,1.28a2.37,2.37,0,0,1,2.23-1.43v.64a2.21,2.21,0,0,0-2.23,2.48v2.39h-.62Z"/><path d="M142.17,103.39a2.09,2.09,0,0,0,2.13,2.13,1.94,1.94,0,0,0,1.84-1h.62a2.54,2.54,0,0,1-2.54,1.61,2.84,2.84,0,0,1,0-5.66,2.55,2.55,0,0,1,2.66,2.78v.19Zm4-.54a1.85,1.85,0,0,0-2-1.87,1.91,1.91,0,0,0-2,1.87Z"/><path d="M153.2,97.84v6.51c0,.52,0,1.06,0,1.58h-.59a9.11,9.11,0,0,1,0-.93,2.07,2.07,0,0,1-2.08,1.08,2.57,2.57,0,0,1-2.59-2.79,2.74,2.74,0,0,1,2.7-2.87,2,2,0,0,1,2,1V97.84Zm-4.64,5.44a2.07,2.07,0,0,0,2,2.23c1.5,0,2.06-1,2.06-2.29s-.45-2.22-2-2.22A2.09,2.09,0,0,0,148.56,103.28Z"/><path d="M158.34,97.84H159v3.7a2.28,2.28,0,0,1,2.1-1.12,2.57,2.57,0,0,1,2.56,2.74,2.61,2.61,0,0,1-2.59,2.92A2.1,2.1,0,0,1,159,105c0,.33,0,.74,0,1h-.6c0-.62,0-1.25,0-1.87Zm4.65,5.34a2,2,0,1,0-4.07.06A2,2,0,0,0,161,105.5C162.44,105.5,163,104.35,163,103.18Z"/><path d="M165.06,100.57c1.25,2.8,2,4.42,2.19,4.91h0c.21-.52.83-2.13,2-4.91H170l-2.28,5.36c-1,2.26-1.34,2.55-2.42,2.55a3.36,3.36,0,0,1-.63-.06v-.61a5.12,5.12,0,0,0,.62,0c.72,0,1.06-.34,1.66-1.66l-2.53-5.63Z"/><path class="cls-3" d="M174.31,99.63a.87.87,0,0,1-.87.86.86.86,0,0,1-.8-.56l0-.05h0a.67.67,0,0,1,0-.24.87.87,0,0,1,1.68-.3A.94.94,0,0,1,174.31,99.63Z"/><path class="cls-3" d="M176,104.91a1,1,0,0,1,0,.3.88.88,0,0,1-.82.57.87.87,0,0,1-.81-.57v0a.75.75,0,0,1,0-.26.69.69,0,0,1,0-.25v0a.87.87,0,0,1,1.63,0v0A1.09,1.09,0,0,1,176,104.91Z"/><path class="cls-3" d="M177.77,99.63a.93.93,0,0,1-.05.29.88.88,0,0,1-.82.57.87.87,0,0,1-.81-.56v-.05a.73.73,0,0,1,0-.25.75.75,0,0,1,0-.26v0a.87.87,0,0,1,.81-.57.86.86,0,0,1,.81.56l0,.05A1.09,1.09,0,0,1,177.77,99.63Z"/><path class="cls-3" d="M179.5,104.91a1,1,0,0,1-.05.3.87.87,0,0,1-1.63,0h0v-.06a.8.8,0,0,1,0-.5v0a.87.87,0,0,1,1.63,0v0A1.09,1.09,0,0,1,179.5,104.91Z"/><path class="cls-3" d="M181.23,99.63a1.09,1.09,0,0,1,0,.25l0,0a.86.86,0,0,1-1.67-.29.75.75,0,0,1,0-.26v0a.87.87,0,0,1,1.68.3Z"/><line class="cls-3" x1="181.19" y1="99.88" x2="181.17" y2="99.92"/><line class="cls-3" x1="179.54" y1="104.91" x2="179.45" y2="105.21"/><polygon class="cls-3" points="178.63 102.13 177.82 104.6 177.8 104.66 177.72 104.91 176.9 102.4 177.71 99.92 177.81 99.62 178.63 102.13"/><polyline class="cls-3" points="177.81 99.63 177.73 99.37 177.71 99.32"/><polyline class="cls-3" points="177.82 105.22 177.82 105.22 177.81 105.16 177.72 104.91"/><path class="cls-3" d="M177.71,99.92l-.81,2.48-.81-2.47a.86.86,0,0,0,1.62,0Z"/><line class="cls-3" x1="176.08" y1="104.91" x2="175.99" y2="105.21"/><polygon class="cls-3" points="176.9 102.4 176.08 104.91 176 104.65 175.98 104.61 175.17 102.13 175.99 99.62 176.07 99.88 176.09 99.93 176.9 102.4"/><polyline class="cls-3" points="176.09 99.33 176.08 99.37 175.99 99.62 175.99 99.63"/><path class="cls-3" d="M176,104.61a.87.87,0,0,0-.81-.57.86.86,0,0,0-.81.56l.81-2.47Z"/><path class="cls-3" d="M175.17,102.13l-.81,2.47,0,.05-.08.26-1.63-5a.88.88,0,0,0,.81.56.86.86,0,0,0,.86-.87.79.79,0,0,0-.05-.3Z"/><polyline class="cls-3" points="174.26 104.91 174.35 105.17 174.36 105.21"/><path class="cls-3" d="M179.44,104.61a.87.87,0,0,0-.81-.57.86.86,0,0,0-.81.56l.81-2.47Z"/><path class="cls-3" d="M181.17,99.92l-1.63,5-.09-.26v0l-.81-2.48.9-2.77a1.09,1.09,0,0,0,0,.26.87.87,0,0,0,1.68.3Z"/><line class="cls-3" x1="179.55" y1="99.33" x2="179.54" y2="99.37"/><path class="cls-3" d="M189.93,99.63a1.09,1.09,0,0,1,0,.25v0a.87.87,0,0,1-1.68-.29.75.75,0,0,1,0-.26v0a.87.87,0,0,1,1.68.3Z"/><path class="cls-3" d="M189.93,104.91a1.09,1.09,0,0,1,0,.26v0a.88.88,0,0,1-.82.57.87.87,0,0,1-.86-.87.78.78,0,0,1,0-.26v0a.87.87,0,0,1,1.68.29Z"/><path class="cls-3" d="M189.93,99.63v5.28a.87.87,0,0,0-1.68-.29v0a.78.78,0,0,0,0,.26V99.63a.87.87,0,0,0,1.68.29v0A1.09,1.09,0,0,0,189.93,99.63Z"/><path class="cls-3" d="M193.39,99.62a1.09,1.09,0,0,1,0,.26v0a.88.88,0,0,1-.82.57.87.87,0,0,1-.86-.87.73.73,0,0,1,0-.25v0a.87.87,0,0,1,1.68.29Z"/><path class="cls-3" d="M193.39,104.91a1.09,1.09,0,0,1,0,.26v0a.88.88,0,0,1-.82.57.87.87,0,0,1-.86-.87.66.66,0,0,1,0-.25v0a.87.87,0,0,1,1.68.3Z"/><path class="cls-3" d="M193.39,99.62v4.43h-.87a.86.86,0,0,0-.81.56v0a.66.66,0,0,0,0,.25V99.62a.87.87,0,0,0,.86.87.88.88,0,0,0,.82-.57v0A1,1,0,0,0,193.39,99.62Z"/><path class="cls-3" d="M196.85,104.91a1.09,1.09,0,0,1,0,.26l0,0a.86.86,0,0,1-1.67-.3.78.78,0,0,1,0-.26v0a.87.87,0,0,1,1.68.3Z"/><path class="cls-3" d="M193.39,104.05v.86a.86.86,0,0,0-.87-.86Z"/><path class="cls-3" d="M196,105.78h-3.46a.88.88,0,0,0,.82-.57v0a1.09,1.09,0,0,0,0-.26v-.86H196a.86.86,0,0,0-.81.56v0a.66.66,0,0,0,0,.25A.86.86,0,0,0,196,105.78Z"/><path class="cls-3" d="M200.09,99.63a.73.73,0,0,1,0,.25v0a.87.87,0,0,1-1.68-.29.75.75,0,0,1,0-.26v0a.87.87,0,0,1,1.68.3Z"/><path class="cls-3" d="M200,105.29a.86.86,0,0,1-1.64-.38.78.78,0,0,1,0-.26v0a.85.85,0,0,1,.81-.57h0"/><path class="cls-3" d="M200.09,99.63v2.46a2,2,0,0,0-.87,1.64,1.73,1.73,0,0,0,0,.32h0a.85.85,0,0,0-.81.57v0a.78.78,0,0,0,0,.26V99.63a.87.87,0,0,0,1.68.29v0A.73.73,0,0,0,200.09,99.63Z"/><path class="cls-3" d="M201.39,101.67a2.22,2.22,0,0,0-1.3.42,2,2,0,0,0-.87,1.63,1.76,1.76,0,0,0,0,.33,2,2,0,0,0,.75,1.24l.09.07a2.22,2.22,0,0,0,1.3.42,2.06,2.06,0,1,0,0-4.11Zm0,3.08a1.12,1.12,0,0,1-.66-.2l-.05,0a1,1,0,0,1-.37-.62,1,1,0,0,1,0-.17,1,1,0,0,1,.44-.82,1.13,1.13,0,0,1,.66-.21,1,1,0,1,1,0,2.06Z"/><path class="cls-3" d="M183,104.91a1,1,0,0,1,0,.3.87.87,0,0,1-.81.57.88.88,0,0,1-.82-.57v0a1.09,1.09,0,0,1,0-.26.69.69,0,0,1,0-.25l0-.06a.86.86,0,0,1,.81-.55.89.89,0,0,1,.43.11h0a.75.75,0,0,1,.2.15l.05.07,0,0a.69.69,0,0,1,.1.19h0v0h0A.69.69,0,0,1,183,104.91Z"/><path class="cls-3" d="M184.74,99.63a.93.93,0,0,1-.05.29.87.87,0,0,1-.81.57.86.86,0,0,1-.81-.56l0-.05a.73.73,0,0,1,0-.25.75.75,0,0,1,0-.26v0a.88.88,0,0,1,.82-.57.87.87,0,0,1,.81.56v.05A.75.75,0,0,1,184.74,99.63Z"/><path class="cls-3" d="M186.47,104.91a1,1,0,0,1-.05.3.88.88,0,0,1-.82.57.86.86,0,0,1-.8-.56h0v0a.75.75,0,0,1,0-.26.69.69,0,0,1,0-.25v0a.87.87,0,0,1,1.63,0v0A.78.78,0,0,1,186.47,104.91Z"/><polyline class="cls-3" points="185.6 102.13 184.79 99.63 184.71 99.85 184.69 99.92 183.88 102.41 184.7 104.91 184.78 104.66 184.79 104.61"/><polyline class="cls-3" points="184.79 99.63 184.7 99.37 184.69 99.32"/><path class="cls-3" d="M184.69,99.92l-.81,2.49-.81-2.48a.86.86,0,0,0,.81.56A.87.87,0,0,0,184.69,99.92Z"/><polyline class="cls-3" points="182.96 104.61 182.97 104.66 183.06 104.91 183.88 102.41 183.07 99.93 183.05 99.88 182.97 99.63 182.15 102.13"/><polyline class="cls-3" points="183.06 99.33 183.05 99.37 182.97 99.62 182.97 99.63"/><path class="cls-3" d="M182.58,104.17a.75.75,0,0,1,.2.15.18.18,0,0,1,.05.07l.06.08h0a.36.36,0,0,1,0,.09"/><path class="cls-3" d="M183,104.61v0h0Z"/><path class="cls-3" d="M185.6,102.13l.82,2.48a.87.87,0,0,0-1.63,0"/><path class="cls-3" d="M207,99.62a1,1,0,0,1,0,.26l0,0a.86.86,0,0,1-1.67-.3.69.69,0,0,1,0-.25v0a.87.87,0,0,1,1.68.29Z"/><path class="cls-3" d="M207,104.91a1.09,1.09,0,0,1,0,.26l0,0a.86.86,0,0,1-1.67-.3.66.66,0,0,1,0-.25v0a.87.87,0,0,1,1.68.3Z"/><path class="cls-3" d="M207,100.49v1.05h-.87a.87.87,0,0,0-.81.57v0a.75.75,0,0,0,0,.26V99.62a.86.86,0,0,0,.86.87Z"/><path class="cls-3" d="M207,103.27v.78h-.87a.86.86,0,0,0-.81.56v0a.66.66,0,0,0,0,.25v-2.5a.86.86,0,0,0,.86.86Z"/><path class="cls-3" d="M207,102.41a1,1,0,0,1,0,.25l0,0a.87.87,0,0,1-.81.57h0a.86.86,0,0,1-.86-.86.75.75,0,0,1,0-.26v0a.87.87,0,0,1,.81-.57h0A.87.87,0,0,1,207,102.41Z"/><path class="cls-3" d="M210.46,104.91a1.09,1.09,0,0,1,0,.26l0,0a.87.87,0,0,1-1.68-.3.8.8,0,0,1,.05-.26v0a.86.86,0,0,1,1.67.3Z"/><path class="cls-3" d="M210.46,102.41a1.07,1.07,0,0,1,0,.25l0,0a.87.87,0,0,1-1.68-.29.75.75,0,0,1,.05-.26v0a.86.86,0,0,1,1.67.3Z"/><path class="cls-3" d="M210.46,99.62a1.09,1.09,0,0,1,0,.26l0,0a.87.87,0,0,1-1.68-.3.74.74,0,0,1,.05-.25v0a.86.86,0,0,1,1.67.29Z"/><path class="cls-3" d="M207,99.62v.87h-.87a.87.87,0,0,0,.81-.57l0,0A1,1,0,0,0,207,99.62Z"/><path class="cls-3" d="M209.6,100.49H207v-.87a.87.87,0,0,0-.87-.86h3.46a.87.87,0,0,0-.81.57v0a.69.69,0,0,0,0,.25A.86.86,0,0,0,209.6,100.49Z"/><path class="cls-3" d="M207,102.41v.86h-.87a.87.87,0,0,0,.81-.57l0,0A1,1,0,0,0,207,102.41Z"/><path class="cls-3" d="M207,101.54v.87a.87.87,0,0,0-.87-.87Z"/><path class="cls-3" d="M209.6,103.27H207v-1.73h2.59a.87.87,0,0,0-.81.57v0a.75.75,0,0,0,0,.26A.86.86,0,0,0,209.6,103.27Z"/><path class="cls-3" d="M207,104.05v.86a.86.86,0,0,0-.87-.86Z"/><path class="cls-3" d="M209.6,105.78h-3.46a.87.87,0,0,0,.81-.57l0,0a1.09,1.09,0,0,0,0-.26v-.86h2.59a.86.86,0,0,0-.81.56v0a.66.66,0,0,0,0,.25A.86.86,0,0,0,209.6,105.78Z"/><path class="cls-3" d="M182.15,102.13l-.81,2.47a.86.86,0,0,1,.81-.55.89.89,0,0,1,.43.11h0a.75.75,0,0,1,.2.15,3,3,0,0,1,.11.16h0a.47.47,0,0,1,0,.1h0"/><path class="cls-3" d="M213.92,104.91a.86.86,0,0,1-1.67.3l0,0a1.09,1.09,0,0,1,0-.26.06.06,0,0,1,0,0,.86.86,0,0,1,1.67-.26v0A.75.75,0,0,1,213.92,104.91Z"/><path class="cls-3" d="M213.84,99.24l-.75,1.25h0a.86.86,0,0,1-.69-.34l-.07-.11-.06-.12v0a1,1,0,0,1,0-.26.86.86,0,0,1,.86-.86.88.88,0,0,1,.68.33l.07.11h0v0Z"/><path class="cls-3" d="M213.92,102.51v2.4a.75.75,0,0,0,0-.26v0a.86.86,0,0,0-1.67.26v-5l.1.16.07.11a.86.86,0,0,0,.69.34h0a1.66,1.66,0,0,0,0,.32,2,2,0,0,0,.78,1.57h0Z"/><line class="cls-3" x1="212.2" y1="104.91" x2="212.2" y2="104.87"/><line class="cls-3" x1="212.2" y1="99.88" x2="212.2" y2="99.62"/><path class="cls-3" d="M217.4,100.81a2,2,0,0,1-1.29,1.87,2.16,2.16,0,0,1-.88.18,2.26,2.26,0,0,1-1.31-.41l-.08-.06h0a2,2,0,0,1-.78-1.57,1.66,1.66,0,0,1,0-.32,2,2,0,0,1,.75-1.25h0a2.23,2.23,0,0,1,1.39-.48A2.11,2.11,0,0,1,217.4,100.81Z"/><path class="cls-3" d="M217.4,104.91a.87.87,0,0,1-.87.87.89.89,0,0,1-.68-.34h0l0-.07a.71.71,0,0,1-.08-.15v0a.75.75,0,0,1,0-.26.87.87,0,0,1,.86-.87.86.86,0,0,1,.69.35l.07.1.06.12v0A.78.78,0,0,1,217.4,104.91Z"/><path class="cls-3" d="M217.22,104.39a.86.86,0,0,0-.69-.35.87.87,0,0,0-.86.87.75.75,0,0,0,0,.26v0a.71.71,0,0,0,.08.15l-1.88-2.85v-.06a2.26,2.26,0,0,0,1.31.41,2.34,2.34,0,0,0,.88-.17Z"/><line class="cls-3" x1="217.29" y1="104.49" x2="217.22" y2="104.39"/><polyline class="cls-3" points="213.84 99.24 213.82 99.21 213.81 99.2 213.74 99.09"/><polyline class="cls-3" points="215.8 105.36 215.84 105.44 215.85 105.44"/><path class="cls-3" d="M221.14,99.63a.86.86,0,0,1-1.67.29l0,0a1.07,1.07,0,0,1,0-.25.86.86,0,0,1,1.67-.3v0A.75.75,0,0,1,221.14,99.63Z"/><path class="cls-3" d="M222.87,104.91a.86.86,0,0,1-1.67.3l0,0a1.09,1.09,0,0,1,0-.26.87.87,0,0,1,1.68-.3v0A.78.78,0,0,1,222.87,104.91Z"/><path class="cls-3" d="M224.6,99.62a.86.86,0,0,1-.86.87.88.88,0,0,1-.82-.57v0a1,1,0,0,1,0-.25h0a.87.87,0,0,1,1.68-.29v0A.73.73,0,0,1,224.6,99.62Z"/><path class="cls-3" d="M222.87,100.49v4.42a.78.78,0,0,0,0-.26v0a.87.87,0,0,0-1.68.3v-4.42Z"/><path class="cls-3" d="M223.74,98.76a.87.87,0,0,0-.87.86v.87h-1.73v-.86a.75.75,0,0,0,0-.26v0a.87.87,0,0,0-.81-.57Z"/><path class="cls-3" d="M223.74,100.49h-.87v-.86a1,1,0,0,0,0,.25v0A.88.88,0,0,0,223.74,100.49Z"/><path class="cls-3" d="M221.14,99.63v.86h-.86A.85.85,0,0,0,221.14,99.63Z"/><path class="cls-3" d="M202.49,103.72a1.06,1.06,0,0,1-1.09,1,1.12,1.12,0,0,1-.66-.2l-.05,0a1,1,0,0,1-.37-.62,1,1,0,0,1,0-.17,1,1,0,0,1,.44-.82,1.13,1.13,0,0,1,.66-.21A1.07,1.07,0,0,1,202.49,103.72Z"/></svg>