<svg id="Layer_1" data-name="Layer 1" xmlns="http://www.w3.org/2000/svg" viewBox="0 0 128 128"><defs><style>.cls-1{fill:#1fa3ff;}.cls-1,.cls-2{stroke:#000;stroke-miterlimit:10;stroke-width:3px;}.cls-2{fill:none;}</style></defs><path class="cls-1" d="M26.8,28.14a12.4,12.4,0,0,1-24,4.41l-.25-.73,0-.13a12.4,12.4,0,0,1,23.53-7.81A12.31,12.31,0,0,1,26.8,28.14Z"/><path class="cls-1" d="M51.6,103.94a12.27,12.27,0,0,1-.75,4.26,12.41,12.41,0,0,1-23.3,0l-.19-.58a12.37,12.37,0,0,1-.56-3.68,11.71,11.71,0,0,1,.55-3.62l.24-.76a12.41,12.41,0,0,1,23.26.12l.19.58A12.42,12.42,0,0,1,51.6,103.94Z"/><path class="cls-1" d="M76.4,28.14a12.27,12.27,0,0,1-.75,4.26,12.41,12.41,0,0,1-23.26.11l-.24-.73a11.84,11.84,0,0,1-.55-3.64,12.42,12.42,0,0,1,.56-3.68l.19-.58a12.4,12.4,0,0,1,23.27-.07l.22.65A12.42,12.42,0,0,1,76.4,28.14Z"/><path class="cls-1" d="M101.2,103.94a12.27,12.27,0,0,1-.75,4.26,12.4,12.4,0,0,1-23.24.14l0,0-.24-.73a11.84,11.84,0,0,1-.55-3.64,12.2,12.2,0,0,1,.53-3.6l.26-.78a12.41,12.41,0,0,1,23.26.12l.19.58A12.42,12.42,0,0,1,101.2,103.94Z"/><path class="cls-1" d="M126,28.14a12.37,12.37,0,0,1-.56,3.68l-.19.58a12.4,12.4,0,0,1-23.49-7.94l.19-.58a12.4,12.4,0,0,1,24,4.26Z"/><line class="cls-2" x1="125.44" y1="31.82" x2="125.25" y2="32.4"/><line class="cls-2" x1="101.85" y1="103.94" x2="100.45" y2="108.2"/><polygon class="cls-2" points="88.8 64.06 77.19 99.56 76.93 100.34 75.76 103.94 64 68.02 75.65 32.4 77.05 28.16 88.8 64.06"/><polyline class="cls-2" points="77.05 28.16 75.84 24.46 75.62 23.81"/><polyline class="cls-2" points="77.21 108.34 77.19 108.31 76.95 107.58 75.76 103.94"/><line class="cls-2" x1="50.96" y1="28.14" x2="50.96" y2="28.13"/><path class="cls-2" d="M75.65,32.4,64,68,52.39,32.51a12.41,12.41,0,0,0,23.26-.11Z"/><line class="cls-2" x1="52.25" y1="103.94" x2="50.85" y2="108.2"/><polygon class="cls-2" points="64 68.02 52.25 103.94 51.04 100.26 50.85 99.68 39.2 64.06 50.96 28.14 52.15 31.78 52.39 32.51 64 68.02"/><polyline class="cls-2" points="52.34 23.88 52.16 24.46 50.96 28.13 50.96 28.14"/><path class="cls-2" d="M50.85,99.68a12.41,12.41,0,0,0-23.26-.12L39.2,64.06Z"/><path class="cls-2" d="M39.2,64.06,27.59,99.56l-.24.76L26.16,104,2.81,32.55a12.4,12.4,0,0,0,23.24-8.67Z"/><polyline class="cls-2" points="26.16 103.96 27.36 107.62 27.55 108.2"/><polyline class="cls-2" points="2.52 31.69 2.56 31.82 2.81 32.55"/><path class="cls-2" d="M100.45,99.68a12.41,12.41,0,0,0-23.26-.12L88.8,64.06Z"/><path class="cls-2" d="M125.25,32.4l-23.4,71.54-1.21-3.68-.19-.58L88.8,64.06l13-39.6a12.4,12.4,0,0,0,23.49,7.94Z"/><line class="cls-2" x1="101.95" y1="23.88" x2="101.76" y2="24.46"/></svg>