<svg id="Layer_1" data-name="Layer 1" xmlns="http://www.w3.org/2000/svg" viewBox="0 0 256 128"><defs><style>.cls-1{fill:#1fa3ff;}.cls-1,.cls-2,.cls-3,.cls-4,.cls-5{stroke:#000;stroke-miterlimit:10;}.cls-2{fill:none;}.cls-3{fill:#64b5f6;}.cls-4{fill:#3f95ff;}.cls-5{fill:#fff;}</style></defs><path class="cls-1" d="M10.38,49.37a4.19,4.19,0,0,1-8.11,1.49l-.08-.25,0,0A4.3,4.3,0,0,1,2,49.37a4.19,4.19,0,0,1,8.13-1.44A4.31,4.31,0,0,1,10.38,49.37Z"/><path class="cls-1" d="M18.75,75a4,4,0,0,1-.25,1.44,4.19,4.19,0,0,1-7.87,0l-.06-.19A3.94,3.94,0,0,1,10.38,75a4.14,4.14,0,0,1,.18-1.22l.08-.26a4.2,4.2,0,0,1,7.86.05l.06.19A3.92,3.92,0,0,1,18.75,75Z"/><path class="cls-1" d="M27.13,49.37a4.31,4.31,0,0,1-.25,1.44,4.19,4.19,0,0,1-7.86,0l-.08-.25a4.16,4.16,0,0,1-.19-1.23,4.23,4.23,0,0,1,.19-1.24l.07-.2a4.19,4.19,0,0,1,7.86,0l.07.22A4.23,4.23,0,0,1,27.13,49.37Z"/><path class="cls-1" d="M35.51,75a4.19,4.19,0,0,1-8.11,1.49h0l-.08-.25A3.82,3.82,0,0,1,27.13,75a4,4,0,0,1,.18-1.21l.09-.27a4.2,4.2,0,0,1,7.86.05l.06.19A4.23,4.23,0,0,1,35.51,75Z"/><path class="cls-1" d="M43.89,49.37a4.23,4.23,0,0,1-.19,1.24l-.07.2a4.19,4.19,0,0,1-7.93-2.68l.06-.2a4.19,4.19,0,0,1,8.13,1.44Z"/><line class="cls-2" x1="43.7" y1="50.61" x2="43.63" y2="50.81"/><line class="cls-2" x1="35.73" y1="74.97" x2="35.26" y2="76.41"/><polygon class="cls-3" points="31.3 61.48 27.38 73.47 27.29 73.73 26.89 74.95 22.92 62.82 26.86 50.79 27.33 49.35 31.3 61.48"/><polyline class="cls-2" points="27.35 49.38 26.94 48.13 26.87 47.91"/><polyline class="cls-2" points="27.4 76.46 27.4 76.45 27.32 76.2 26.91 74.97"/><line class="cls-2" x1="18.54" y1="49.37" x2="18.54" y2="49.36"/><path class="cls-4" d="M26.86,50.79l-3.94,12L19,50.82a4.19,4.19,0,0,0,7.86,0Z"/><line class="cls-2" x1="18.98" y1="74.97" x2="18.5" y2="76.41"/><polygon class="cls-3" points="22.92 62.82 18.95 74.95 18.54 73.71 18.48 73.51 14.54 61.48 18.52 49.35 18.92 50.58 19 50.82 22.92 62.82"/><polyline class="cls-2" points="19.01 47.93 18.94 48.13 18.54 49.37 18.54 49.37"/><path class="cls-4" d="M18.48,73.51a4.19,4.19,0,0,0-7.86,0l3.92-12Z"/><path class="cls-3" d="M14.54,61.48l-3.92,12-.08.26L10.14,75,2.25,50.84a4.19,4.19,0,0,0,8.11-1.49,4.08,4.08,0,0,0-.26-1.44Z"/><polyline class="cls-2" points="10.16 74.98 10.57 76.22 10.63 76.41"/><path class="cls-4" d="M35.24,73.51a4.19,4.19,0,0,0-7.86,0l3.92-12Z"/><path class="cls-3" d="M43.61,50.79,35.71,75l-.41-1.24-.06-.2-3.94-12,4.38-13.37a3.92,3.92,0,0,0-.19,1.24,4.19,4.19,0,0,0,8.12,1.44Z"/><line class="cls-2" x1="35.76" y1="47.93" x2="35.7" y2="48.13"/><path class="cls-1" d="M86,49.38a4.28,4.28,0,0,1-.19,1.24l-.07.2a4.18,4.18,0,0,1-8.11-1.44,3.68,3.68,0,0,1,.19-1.25l0-.19A4.19,4.19,0,0,1,86,49.38Z"/><path class="cls-1" d="M86,75a4.18,4.18,0,0,1-.19,1.24l-.07.2A4.18,4.18,0,0,1,77.67,75a3.72,3.72,0,0,1,.19-1.25l0-.19A4.19,4.19,0,0,1,86,75Z"/><path class="cls-3" d="M86,49.38V75a4.19,4.19,0,0,0-8.13-1.44l0,.19A3.72,3.72,0,0,0,77.67,75V49.38a4.18,4.18,0,0,0,8.11,1.44l.07-.2A4.28,4.28,0,0,0,86,49.38Z"/><path class="cls-1" d="M102.79,49.37a4.3,4.3,0,0,1-.19,1.25l-.06.19a4.19,4.19,0,0,1-8.12-1.44,4.25,4.25,0,0,1,.19-1.25l0-.19a4.19,4.19,0,0,1,8.13,1.44Z"/><path class="cls-1" d="M102.79,75a4.25,4.25,0,0,1-.19,1.25l-.06.18A4.19,4.19,0,0,1,94.42,75a3.78,3.78,0,0,1,.19-1.23l.06-.21A4.19,4.19,0,0,1,102.79,75Z"/><path class="cls-3" d="M102.79,49.36V70.78H98.6a4.2,4.2,0,0,0-3.93,2.75l-.06.21A3.78,3.78,0,0,0,94.42,75V49.36a4.19,4.19,0,0,0,8.12,1.44l.06-.19A4.15,4.15,0,0,0,102.79,49.36Z"/><path class="cls-1" d="M119.54,75a3.94,3.94,0,0,1-.19,1.25l0,.19a4.19,4.19,0,0,1-7.94-2.68l.06-.2A4.19,4.19,0,0,1,119.54,75Z"/><path class="cls-4" d="M102.79,70.78V75a4.18,4.18,0,0,0-4.19-4.19Z"/><path class="cls-3" d="M115.36,79.16H98.6a4.19,4.19,0,0,0,3.94-2.76l.06-.18a4.25,4.25,0,0,0,.19-1.25V70.78h12.57a4.22,4.22,0,0,0-4,2.75l0,.21a4.06,4.06,0,0,0-.19,1.23A4.19,4.19,0,0,0,115.36,79.16Z"/><path class="cls-1" d="M135.26,49.38a4.28,4.28,0,0,1-.19,1.24l-.07.2a4.19,4.19,0,0,1-8.12-1.44,3.94,3.94,0,0,1,.19-1.25l.06-.19a4.19,4.19,0,0,1,8.13,1.44Z"/><path class="cls-1" d="M134.81,76.82a4.15,4.15,0,0,1-3.74,2.35A4.19,4.19,0,0,1,126.88,75a4,4,0,0,1,.19-1.25l.06-.19a4.19,4.19,0,0,1,3.94-2.75h.13"/><path class="cls-3" d="M135.26,49.38V61.29a9.75,9.75,0,0,0-4.19,7.94,9,9,0,0,0,.13,1.57h-.13a4.19,4.19,0,0,0-3.94,2.75l-.06.19a4,4,0,0,0-.19,1.25V49.38A4.19,4.19,0,0,0,135,50.82l.07-.2A4.28,4.28,0,0,0,135.26,49.38Z"/><path class="cls-1" d="M152.1,69.23c0,5.48-4.71,9.93-10.52,9.93a10.94,10.94,0,0,1-6.32-2l-.45-.35a9.71,9.71,0,0,1-3.61-6,9,9,0,0,1-.13-1.57,9.75,9.75,0,0,1,4.19-7.94,10.94,10.94,0,0,1,6.32-2C147.39,59.3,152.1,63.75,152.1,69.23Z"/><path class="cls-1" d="M52.53,75a4.26,4.26,0,0,1-.25,1.43,4.19,4.19,0,0,1-7.87,0l-.07-.19A4.28,4.28,0,0,1,44.15,75a3.82,3.82,0,0,1,.19-1.23l.08-.26a4.19,4.19,0,0,1,6-2.14h0a4.63,4.63,0,0,1,.94.75l.26.32.09.14a4,4,0,0,1,.49.88l0,.08h0l.06.19h0v0A4.31,4.31,0,0,1,52.53,75Z"/><path class="cls-1" d="M60.91,49.37a4.08,4.08,0,0,1-.26,1.44,4.19,4.19,0,0,1-7.85,0l-.09-.25a4.16,4.16,0,0,1-.18-1.23,4.23,4.23,0,0,1,.19-1.24l.06-.2a4.19,4.19,0,0,1,7.86,0l.08.22A4.23,4.23,0,0,1,60.91,49.37Z"/><path class="cls-1" d="M69.28,75A4,4,0,0,1,69,76.41a4.19,4.19,0,0,1-7.85,0h0l-.08-.24A4.18,4.18,0,0,1,60.9,75a4.08,4.08,0,0,1,.19-1.21l.08-.26a4.2,4.2,0,0,1,7.86,0l.06.2A4,4,0,0,1,69.28,75Z"/><polyline class="cls-3" points="65.09 61.51 61.13 49.38 60.77 50.46 60.66 50.8 56.72 62.84 60.69 74.97 61.09 73.75 61.17 73.5"/><polyline class="cls-2" points="61.13 49.38 60.72 48.13 60.65 47.91"/><line class="cls-2" x1="52.31" y1="49.37" x2="52.31" y2="49.36"/><path class="cls-4" d="M60.65,50.81l-3.93,12-3.92-12a4.19,4.19,0,0,0,7.85,0Z"/><polyline class="cls-3" points="52.27 73.53 52.34 73.73 52.76 74.97 56.72 62.84 52.8 50.85 52.71 50.59 52.31 49.37 48.34 61.51"/><polyline class="cls-2" points="52.78 47.93 52.72 48.13 52.31 49.37 52.31 49.37"/><path class="cls-5" d="M50.46,71.36a4.63,4.63,0,0,1,.94.75,4,4,0,0,1,.26.32c.1.14.19.28.28.42l0,0a0,0,0,0,1,0,0s0,0,0,0a0,0,0,0,1,0,0,3.82,3.82,0,0,1,.21.46"/><path class="cls-5" d="M52.25,73.51l0-.12,0,0Z"/><path class="cls-3" d="M65.09,61.51l3.94,12a4.2,4.2,0,0,0-7.86,0"/><path class="cls-1" d="M168.76,49.36a4.49,4.49,0,0,1-.18,1.25l-.07.19a4.19,4.19,0,0,1-7.94-2.68l.07-.19a4.19,4.19,0,0,1,8.12,1.43Z"/><path class="cls-1" d="M168.76,75a4.6,4.6,0,0,1-.18,1.25l-.07.18A4.19,4.19,0,0,1,160.39,75a4.06,4.06,0,0,1,.18-1.23l.07-.21A4.19,4.19,0,0,1,168.76,75Z"/><path class="cls-3" d="M168.76,53.56v5.1h-4.19a4.17,4.17,0,0,0-3.93,2.74l-.07.2a4.18,4.18,0,0,0-.18,1.24V49.36a4.2,4.2,0,0,0,4.18,4.2Z"/><path class="cls-3" d="M168.76,67v3.75h-4.19a4.2,4.2,0,0,0-3.93,2.75l-.07.21a4.06,4.06,0,0,0-.18,1.23V62.84A4.19,4.19,0,0,0,164.57,67Z"/><path class="cls-1" d="M168.76,62.84a4.53,4.53,0,0,1-.18,1.24l-.07.2A4.2,4.2,0,0,1,164.58,67h0a4.21,4.21,0,0,1-4-5.43l.07-.2a4.17,4.17,0,0,1,3.93-2.74h0A4.18,4.18,0,0,1,168.76,62.84Z"/><path class="cls-1" d="M185.52,75a4.25,4.25,0,0,1-.19,1.25l-.07.19A4.19,4.19,0,0,1,177.14,75a3.66,3.66,0,0,1,.2-1.24l0-.2A4.19,4.19,0,0,1,185.52,75Z"/><path class="cls-1" d="M185.52,62.84a4.23,4.23,0,0,1-.19,1.24l-.07.2a4.19,4.19,0,0,1-8.12-1.44,3.76,3.76,0,0,1,.2-1.25l0-.18a4.19,4.19,0,0,1,8.13,1.43Z"/><path class="cls-1" d="M185.52,49.37a4.3,4.3,0,0,1-.19,1.25l-.07.19a4.19,4.19,0,0,1-8.12-1.44,3.68,3.68,0,0,1,.2-1.25l0-.19a4.19,4.19,0,0,1,8.13,1.44Z"/><path class="cls-4" d="M168.76,49.36v4.2h-4.19a4.2,4.2,0,0,0,3.94-2.76l.07-.19A4.49,4.49,0,0,0,168.76,49.36Z"/><path class="cls-3" d="M181.32,53.56H168.76v-4.2a4.18,4.18,0,0,0-4.19-4.18h16.75a4.17,4.17,0,0,0-3.92,2.75l-.06.19a3.66,3.66,0,0,0-.2,1.24A4.2,4.2,0,0,0,181.32,53.56Z"/><path class="cls-4" d="M168.76,62.84V67h-4.18a4.2,4.2,0,0,0,3.93-2.75l.07-.2A4.53,4.53,0,0,0,168.76,62.84Z"/><path class="cls-4" d="M168.76,58.66v4.18a4.18,4.18,0,0,0-4.18-4.18Z"/><path class="cls-3" d="M181.32,67H168.76V58.66h12.56a4.17,4.17,0,0,0-3.92,2.74l-.06.2a3.62,3.62,0,0,0-.2,1.24A4.19,4.19,0,0,0,181.32,67Z"/><path class="cls-4" d="M168.76,70.78V75a4.18,4.18,0,0,0-4.19-4.19Z"/><path class="cls-3" d="M181.32,79.16H164.57a4.2,4.2,0,0,0,3.94-2.76l.07-.18a4.6,4.6,0,0,0,.18-1.25V70.78h12.56a4.19,4.19,0,0,0-3.92,2.75l-.06.21a3.53,3.53,0,0,0-.2,1.23A4.19,4.19,0,0,0,181.32,79.16Z"/><path class="cls-3" d="M48.34,61.51l-3.92,12a4.19,4.19,0,0,1,6-2.14h0a4.63,4.63,0,0,1,.94.75,4,4,0,0,1,.26.32,2.21,2.21,0,0,1,.3.45,0,0,0,0,1,0,0s0,0,0,0,0,0,0,0a2.42,2.42,0,0,1,.23.49s0,0,0,0"/><line class="cls-2" x1="48.34" y1="61.51" x2="48.34" y2="61.5"/><path class="cls-1" d="M202.27,75a4.19,4.19,0,0,1-8.12,1.44l-.07-.19a4.35,4.35,0,0,1-.19-1.25,1.48,1.48,0,0,1,0-.21A4.2,4.2,0,0,1,202,73.53l.05.2A4.23,4.23,0,0,1,202.27,75Z"/><path class="cls-1" d="M201.85,47.51l-3.63,6h-.14a4.18,4.18,0,0,1-3.32-1.64l-.34-.54a3.88,3.88,0,0,1-.28-.58l0-.19a3.86,3.86,0,0,1-.19-1.25,4.2,4.2,0,0,1,7.47-2.61l.37.57,0,0,.05.08A.59.59,0,0,1,201.85,47.51Z"/><path class="cls-3" d="M202.27,63.35V75a4.23,4.23,0,0,0-.19-1.24l-.05-.2a4.2,4.2,0,0,0-8.13,1.23V50.61l.52.77.34.54a4.18,4.18,0,0,0,3.32,1.64h.14a9,9,0,0,0-.14,1.57,9.63,9.63,0,0,0,3.79,7.61h0Z"/><line class="cls-2" x1="193.9" y1="74.97" x2="193.9" y2="74.76"/><line class="cls-2" x1="193.9" y1="50.61" x2="193.9" y2="49.36"/><path class="cls-1" d="M219.11,55.12a9.91,9.91,0,0,1-6.27,9.07A11.09,11.09,0,0,1,202.27,63c-.14-.09-.26-.2-.4-.3h0a9.63,9.63,0,0,1-3.79-7.61,9,9,0,0,1,.14-1.57,9.72,9.72,0,0,1,3.63-6h0a10.88,10.88,0,0,1,6.74-2.31C214.41,45.19,219.11,49.64,219.11,55.12Z"/><path class="cls-1" d="M219.11,75a4.19,4.19,0,0,1-7.52,2.55h0l-.23-.34a4.82,4.82,0,0,1-.36-.76l-.06-.19a3.94,3.94,0,0,1-.2-1.25,4.19,4.19,0,0,1,7.52-2.54l.35.52a4.29,4.29,0,0,1,.26.58l.06.2A3.92,3.92,0,0,1,219.11,75Z"/><path class="cls-3" d="M218.25,72.43A4.19,4.19,0,0,0,210.73,75a3.94,3.94,0,0,0,.2,1.25l.06.19a4.82,4.82,0,0,0,.36.76l-9.08-13.81V63a10.8,10.8,0,0,0,6.33,2,10.93,10.93,0,0,0,4.25-.85Z"/><line class="cls-2" x1="218.6" y1="72.95" x2="218.25" y2="72.43"/><polyline class="cls-2" points="201.86 47.51 201.76 47.35 201.74 47.32 201.37 46.76"/><polyline class="cls-2" points="211.35 77.17 211.58 77.51 211.59 77.52"/><path class="cls-1" d="M237.25,49.38a4.2,4.2,0,0,1-8.13,1.44l-.05-.2a4,4,0,0,1-.19-1.24A4.19,4.19,0,0,1,237,47.94l.06.19A4.25,4.25,0,0,1,237.25,49.38Z"/><path class="cls-1" d="M245.63,75a4.19,4.19,0,0,1-8.13,1.44l-.06-.19a3.94,3.94,0,0,1-.19-1.25,4.19,4.19,0,0,1,8.12-1.44l.07.2A4.23,4.23,0,0,1,245.63,75Z"/><path class="cls-1" d="M254,49.37a4.19,4.19,0,0,1-8.13,1.44l-.05-.19a4.23,4.23,0,0,1-.19-1.24h0a4.19,4.19,0,0,1,8.12-1.44l.06.19A4.25,4.25,0,0,1,254,49.37Z"/><path class="cls-3" d="M245.63,53.56V75a4.23,4.23,0,0,0-.19-1.24l-.07-.2A4.19,4.19,0,0,0,237.25,75V53.56Z"/><path class="cls-4" d="M249.82,45.18a4.19,4.19,0,0,0-4.19,4.19v4.19h-8.38V49.38a4.25,4.25,0,0,0-.19-1.25l-.06-.19a4.2,4.2,0,0,0-3.94-2.75Z"/><path class="cls-3" d="M249.82,53.56h-4.19V49.38a4.23,4.23,0,0,0,.19,1.24l.05.19A4.22,4.22,0,0,0,249.82,53.56Z"/><path class="cls-3" d="M237.25,49.38v4.18h-4.19A4.18,4.18,0,0,0,237.25,49.38Z"/></svg>