<svg id="Layer_1" data-name="Layer 1" xmlns="http://www.w3.org/2000/svg" viewBox="0 0 128 128"><defs><style>.cls-1{fill:#191919;}.cls-1,.cls-2{stroke:#000;stroke-miterlimit:10;stroke-width:3px;}.cls-2{fill:none;}</style></defs><path class="cls-1" d="M26.82,28.14a12.4,12.4,0,0,1-24,4.41l-.24-.73,0-.13A12.65,12.65,0,0,1,2,28.14a12.41,12.41,0,0,1,24.06-4.26A12.55,12.55,0,0,1,26.82,28.14Z"/><path class="cls-1" d="M51.62,103.94a12.4,12.4,0,0,1-24,4.26l-.18-.58a12.18,12.18,0,0,1,0-7.3l.24-.76a12.42,12.42,0,0,1,23.27.12l.18.58A12.1,12.1,0,0,1,51.62,103.94Z"/><path class="cls-1" d="M76.42,28.14a12.4,12.4,0,0,1-24,4.37l-.24-.73a12.24,12.24,0,0,1,0-7.32l.18-.58a12.41,12.41,0,0,1,23.28-.07l.21.65A12.1,12.1,0,0,1,76.42,28.14Z"/><path class="cls-1" d="M101.22,103.94a12.4,12.4,0,0,1-24,4.4l0,0-.24-.73a12.3,12.3,0,0,1,0-7.24l.25-.78a12.42,12.42,0,0,1,23.27.12l.18.58A12.1,12.1,0,0,1,101.22,103.94Z"/><path class="cls-1" d="M126,28.14a12.06,12.06,0,0,1-.56,3.68l-.18.58a12.41,12.41,0,0,1-24.06-4.26,12.11,12.11,0,0,1,.57-3.68l.18-.58a12.4,12.4,0,0,1,24,4.26Z"/><line class="cls-2" x1="125.46" y1="31.82" x2="125.28" y2="32.4"/><line class="cls-2" x1="101.88" y1="103.94" x2="100.48" y2="108.2"/><polygon class="cls-1" points="88.82 64.06 77.22 99.56 76.96 100.34 75.78 103.94 64.02 68.02 75.68 32.4 77.08 28.16 88.82 64.06"/><polyline class="cls-2" points="77.08 28.16 75.86 24.46 75.65 23.81"/><polyline class="cls-2" points="77.23 108.34 77.22 108.31 76.97 107.58 75.78 103.94"/><line class="cls-2" x1="50.98" y1="28.14" x2="50.98" y2="28.13"/><path class="cls-1" d="M75.68,32.4,64,68,52.41,32.51a12.41,12.41,0,0,0,23.27-.11Z"/><line class="cls-2" x1="52.28" y1="103.94" x2="50.88" y2="108.2"/><polygon class="cls-1" points="64.02 68.02 52.28 103.94 51.06 100.26 50.88 99.68 39.22 64.06 50.98 28.14 52.17 31.78 52.41 32.51 64.02 68.02"/><polyline class="cls-2" points="52.37 23.88 52.19 24.46 50.98 28.13 50.98 28.14"/><path class="cls-1" d="M50.88,99.68a12.42,12.42,0,0,0-23.27-.12l11.61-35.5Z"/><path class="cls-1" d="M39.22,64.06,27.61,99.56l-.24.76L26.18,104,2.83,32.55a12.4,12.4,0,0,0,24-4.41,12.55,12.55,0,0,0-.74-4.26Z"/><polyline class="cls-2" points="26.18 103.96 27.39 107.62 27.57 108.2"/><polyline class="cls-2" points="2.54 31.69 2.59 31.82 2.83 32.55"/><path class="cls-1" d="M100.48,99.68a12.42,12.42,0,0,0-23.27-.12l11.61-35.5Z"/><path class="cls-1" d="M125.28,32.4l-23.4,71.54-1.22-3.68-.18-.58L88.82,64.06l13-39.6a12.11,12.11,0,0,0-.57,3.68,12.41,12.41,0,0,0,24.06,4.26Z"/><line class="cls-2" x1="101.97" y1="23.88" x2="101.79" y2="24.46"/></svg>