<svg id="Layer_1" data-name="Layer 1" 
    xmlns="http://www.w3.org/2000/svg" viewBox="0 0 128 128">
    <path d="M51.45,0H6.27A6.27,6.27,0,0,0,0,6.27V51.45a6.28,6.28,0,0,0,6.27,6.28H51.45a6.28,6.28,0,0,0,6.28-6.28V6.27A6.28,6.28,0,0,0,51.45,0ZM47.73,42.73a5,5,0,0,1-5,5H15a5,5,0,0,1-5-5V15a5,5,0,0,1,5-5H42.73a5,5,0,0,1,5,5Z" shape-rendering="geometricPrecision"/>
    <path d="M51.45,70.27H6.27A6.28,6.28,0,0,0,0,76.55v45.18A6.27,6.27,0,0,0,6.27,128H51.45a6.28,6.28,0,0,0,6.28-6.27V76.55A6.28,6.28,0,0,0,51.45,70.27ZM47.73,113a5,5,0,0,1-5,5H15a5,5,0,0,1-5-5V85.27a5,5,0,0,1,5-5H42.73a5,5,0,0,1,5,5Z" shape-rendering="geometricPrecision"/>
    <path d="M121.73,0H76.55a6.06,6.06,0,0,0-6.28,5.82V122.18A6.06,6.06,0,0,0,76.55,128h45.18a6.06,6.06,0,0,0,6.27-5.82V5.82A6.06,6.06,0,0,0,121.73,0ZM118,113a5,5,0,0,1-5,5H85.27a5,5,0,0,1-5-5V15a5,5,0,0,1,5-5H113a5,5,0,0,1,5,5Z" shape-rendering="geometricPrecision"/>
</svg>