<svg id="Layer_1" data-name="Layer 1" xmlns="http://www.w3.org/2000/svg" viewBox="0 0 128 128"><defs><style>.cls-1{fill:#fff;}.cls-2,.cls-3{fill:none;}.cls-2{stroke:#f7931e;stroke-miterlimit:10;}</style></defs><path d="M65.55,4.74A59.26,59.26,0,0,0,35,115.56l2.16-11.64A48.21,48.21,0,0,1,59.59,16.08h0L68.45,4.89C67.48,4.81,66.52,4.74,65.55,4.74Zm28.22,7.89L91.65,24.27a48.21,48.21,0,0,1-22.77,87.65L60,123.1A57.86,57.86,0,0,0,70.09,123,59.25,59.25,0,0,0,93.77,12.65ZM73.37,64l.27-1.47v-.11l8-43.38L83.68,8a55.74,55.74,0,0,0-5.8-1.69l-7.81,9.83L33.83,61.88,32.11,64h23l-.27,1.47v.11L46.8,109l-2.06,11,5.81,1.69,7.81-9.83L94.59,66.17l1.73-2.12Z"/><path class="cls-1" d="M58.36,111.84,96.32,64H73.37l8.27-44.95a47.17,47.17,0,0,0-11.57-2.89L32.11,64h23l-8.27,45Z"/><path d="M93.55,64a1.34,1.34,0,0,1,1.06,2.12L58.36,111.84l-7.81,9.83-4.63,5.82a1.33,1.33,0,0,1-2.36-1.06L44.74,120l2-11,8-43.38A1.33,1.33,0,0,0,53.66,64l-.21,0H34.88a1.34,1.34,0,0,1-1.06-2.12L70.07,16.16l7.81-9.83L82.51.51A1.33,1.33,0,0,1,84.38.29a1.31,1.31,0,0,1,.49,1.28L83.68,8l-2,11-8,43.38A1.34,1.34,0,0,0,74.76,64L75,64Z"/><line class="cls-2" x1="28.89" y1="79.04" x2="28.89" y2="79.08"/><line class="cls-3" x1="68.84" y1="111.98" x2="59.99" y2="123.1"/><line class="cls-3" x1="37.14" y1="103.88" x2="34.98" y2="115.56"/><line class="cls-3" x1="93.77" y1="12.65" x2="91.61" y2="24.34"/><polyline class="cls-3" points="59.59 16.02 59.6 16.02 68.44 4.89"/></svg>