<svg id="Layer_1" data-name="Layer 1" xmlns="http://www.w3.org/2000/svg" viewBox="0 0 128 128"><defs><style>.cls-1{fill:#fff;}</style></defs><path d="M80.36,90.1a4,4,0,0,1-1.46,5.42,3.91,3.91,0,0,1-2,.53,4,4,0,0,1-3.45-2L60.28,71.21a4.09,4.09,0,0,1-.53-2V42.82a4,4,0,1,1,7.94,0V67.09a4,4,0,0,0,.53,2Z"/><path d="M8.84,9.2a24.75,24.75,0,0,1,34.87,3.05L5.79,44.07A24.75,24.75,0,0,1,8.84,9.2Z"/><path d="M119.16,9.2a24.75,24.75,0,0,0-34.87,3.05l37.92,31.82A24.75,24.75,0,0,0,119.16,9.2Z"/><path class="cls-1" d="M78.9,95.52a3.91,3.91,0,0,1-2,.53,4,4,0,0,1-3.45-2L60.28,71.21a4.09,4.09,0,0,1-.53-2V42.82a4,4,0,1,1,7.94,0V67.09a4,4,0,0,0,.53,2l12.14,21A4,4,0,0,1,78.9,95.52Z"/><path d="M78.9,95.52a3.91,3.91,0,0,1-2,.53,4,4,0,0,1-3.45-2L60.28,71.21a4.09,4.09,0,0,1-.53-2V43.08A4.14,4.14,0,0,1,64,38.86a4,4,0,0,1,3.71,4V67.09a4,4,0,0,0,.53,2l12.14,21A4,4,0,0,1,78.9,95.52Z"/><path d="M99.7,103.54A49.49,49.49,0,1,0,28,103.8l-7.71,9.31a5,5,0,0,0,.67,7l1.61,1.34a5,5,0,0,0,7-.66l7.77-9.38h0a49.5,49.5,0,0,0,53-.19l7.92,9.57a5,5,0,0,0,7,.66l1.62-1.34a5,5,0,0,0,.66-7l-7.92-9.57ZM23.93,71.63a39.84,39.84,0,1,1,37.72,37.72A39.85,39.85,0,0,1,23.93,71.63Z"/></svg>